BBC Natural World: The Woman Who Swims with Killer Whales. 2011/2012 HD 720p x264 aac mp4 w/subtitles [aularon]


- - -
Synopsis
- - -
The killer whale is one of the most feared predators in the ocean and most would consider it madness to enter the water with one. But New Zealander Dr Ingrid Visser thinks differently - and by swimming with her beloved whales she has come to know almost all of them by sight. But there's been an unusual number of deaths recently and Ingrid is on a mission to find out what is going on. Her findings reveal disturbing new information about the health of our oceans.


- - -
URL
- - -     
http://www.bbc.co.uk/programmes/b0147dw3


- - -
Technical Details
- - -
General
Complete name                    : BBC.Natural.World.2011.E05.The.Woman.Who.Swims.with.Killer.Whales/Natural_World_-_2011-2012_5._The_Woman_Who_Swims_with_Killer_Whales_b0147dw3_default.mp4
Format                           : MPEG-4
Format profile                   : Base Media
Codec ID                         : isom
File size                        : 1.02 GiB
Duration                         : 58mn 45s
Overall bit rate                 : 2 487 Kbps
Movie name                       : Natural World: 2011-2012: The Woman Who Swims with Killer Whales
Album                            : Natural World
Track name/Position              : 5
Track name/Total                 : 0
Performer                        : Natural World
Genre                            : Factual,Science & Nature,Lifestyle & Leisure,Pets & Animals
Recorded date                    : 2011-08-31T20:00:00+01:00
Tagged date                      : UTC 2011-09-01 00:35:36
Writing application              : Lavf53.10.0
Cover                            : Yes
Comment                          : Recorded using get_iplayer, by Aularon.
rtng                             : 2
stik                             : 1
desc                             : Dr Ingrid Visser investigates why there's been an unusual number of killer whale deaths recently. Her findings reveal disturbing new information about the health of our oceans.
tvnn                             : BBC HD
tvsh                             : Natural World
tven                             : b0147dw3
catg                             : Factual,Science & Nature,Lifestyle & Leisure,Pets & Animals
tves                             : 5

Video
ID                               : 1
Format                           : AVC
Format/Info                      : Advanced Video Codec
Format profile                   : High@L4.1
Format settings, CABAC           : Yes
Format settings, ReFrames        : 6 frames
Codec ID                         : avc1
Codec ID/Info                    : Advanced Video Coding
Duration                         : 58mn 45s
Bit rate mode                    : Variable
Bit rate                         : 2 387 Kbps
Maximum bit rate                 : 3 500 Kbps
Width                            : 1 280 pixels
Height                           : 720 pixels
Display aspect ratio             : 16:9
Frame rate mode                  : Constant
Frame rate                       : 25.000 fps
Standard                         : PAL
Color space                      : YUV
Chroma subsampling               : 4:2:0
Bit depth                        : 8 bits
Scan type                        : Progressive
Bits/(Pixel*Frame)               : 0.104
Stream size                      : 1 003 MiB (96%)

Audio
ID                               : 2
Format                           : AAC
Format/Info                      : Advanced Audio Codec
Format profile                   : HE-AAC / LC
Codec ID                         : 40
Duration                         : 58mn 45s
Bit rate mode                    : Constant
Bit rate                         : 96.0 Kbps
Channel(s)                       : 2 channels
Channel positions                : Front: L R
Sampling rate                    : 48.0 KHz / 24.0 KHz
Compression mode                 : Lossy
Stream size                      : 39.8 MiB (4%)



                  ______                                     
                 (____  \                                    
                  ____)  )_____  ____ _____ _   _  ___ _____ 
                 |  __  (| ___ |/ ___|____ | | | |/___) ___ |
            _ _ _| |__)  ) ____( (___/ ___ | |_| |___ | ____|
           (_|_|_)______/|_____)\____)_____|____/(___/|_____)
                                                              
                   ______ _                 _             
                  / _____) |               (_)            
                 ( (____ | |__  _____  ____ _ ____   ____ 
                  \____ \|  _ \(____ |/ ___) |  _ \ / _  |
                  _____) ) | | / ___ | |   | | | | ( (_| |
                 (______/|_| |_\_____|_|   |_|_| |_|\___ |
                                                   (_____|
                                  _      
                                 (_)     
                                  _  ___ 
                                 | |/___)
                                 | |___ |
                                 |_(___/ 

                    _______             _               
                   (_______)           (_)              
                    _       _____  ____ _ ____   ____   
                   | |     (____ |/ ___) |  _ \ / _  |  
                   | |_____/ ___ | |   | | | | ( (_| |_ 
                    \______)_____|_|   |_|_| |_|\___ (_)
                                               (_____|  

                                    ;)

